<svg width="21" height="20" viewBox="0 0 21 20" fill="none" xmlns="http://www.w3.org/2000/svg">
<path d="M11.358 9V9.5H11.858H13.8362C13.9641 9.5 14.088 9.55133 14.1801 9.6445C14.2725 9.73786 14.3253 9.86563 14.3253 10C14.3253 10.1344 14.2725 10.2621 14.1801 10.3555C14.088 10.4487 13.9641 10.5 13.8362 10.5H10.8689C10.741 10.5 10.6172 10.4487 10.525 10.3555C10.4327 10.2621 10.3799 10.1344 10.3799 10V5C10.3799 4.86563 10.4327 4.73786 10.525 4.6445L10.1695 4.29289L10.525 4.6445C10.6172 4.55133 10.741 4.5 10.8689 4.5C10.9969 4.5 11.1207 4.55133 11.2128 4.6445C11.3052 4.73786 11.358 4.86563 11.358 5V9ZM5.65374 2.09962C7.19793 1.05645 9.01282 0.5 10.8689 0.5C12.1014 0.5 13.3219 0.745423 14.4609 1.2224C15.5999 1.69937 16.6351 2.39864 17.5074 3.28054C18.3797 4.16245 19.0719 5.20973 19.5443 6.36272C20.0167 7.51572 20.2598 8.75168 20.2598 10C20.2598 11.8801 19.7084 13.7176 18.6758 15.28C17.6433 16.8424 16.1762 18.0592 14.4609 18.7776C12.7456 19.4959 10.8585 19.6838 9.0379 19.3177C7.2173 18.9515 5.5442 18.0476 4.2305 16.7195C2.91674 15.3912 2.02144 13.6982 1.65868 11.8544C1.29591 10.0105 1.48214 8.0993 2.19361 6.36272C2.90505 4.62619 4.10948 3.14284 5.65374 2.09962ZM6.19297 17.0661C7.57657 18.0008 9.20383 18.5 10.8689 18.5C13.1019 18.5 15.2423 17.6031 16.8196 16.0085C18.3966 14.414 19.2817 12.2526 19.2817 10C19.2817 8.32007 18.789 6.67743 17.8653 5.27976C16.9415 3.88203 15.628 2.79179 14.0901 2.14777C12.5522 1.50373 10.8597 1.33513 9.22667 1.66353C7.5937 1.99193 6.09449 2.80238 4.91831 3.99154C3.74219 5.18063 2.94185 6.69496 2.61766 8.34275C2.29347 9.99052 2.45981 11.6985 3.09586 13.251C3.73193 14.8036 4.80944 16.1314 6.19297 17.0661Z" fill="white" stroke="#DCE0EC"/>
</svg>
