<svg width="17" height="20" viewBox="0 0 17 20" fill="none" xmlns="http://www.w3.org/2000/svg">
<path d="M12.3256 2V2.5H12.8256H13.8147C14.4673 2.5 15.0943 2.76204 15.5574 3.23029C16.0207 3.69872 16.282 4.3352 16.282 5V17C16.282 17.6648 16.0207 18.3013 15.5574 18.7697C15.0943 19.238 14.4673 19.5 13.8147 19.5H3.92382C3.27124 19.5 2.64426 19.238 2.18112 18.7697C1.7178 18.3013 1.45654 17.6648 1.45654 17V5C1.45654 4.3352 1.7178 3.69872 2.18112 3.23029C2.64426 2.76204 3.27124 2.5 3.92382 2.5H4.91291H5.41291V2C5.41291 1.60042 5.56996 1.21829 5.84779 0.937395C6.12544 0.656687 6.50083 0.5 6.89109 0.5H10.8475C11.2377 0.5 11.6131 0.656687 11.8908 0.937395C12.1686 1.21829 12.3256 1.60042 12.3256 2ZM6.89109 1.5H6.39109V2V4V4.5H6.89109H10.8475H11.3475V4V3V2V1.5H10.8475H6.89109ZM5.41291 4V3.5H4.91291H3.92382C3.5271 3.5 3.14776 3.65938 2.86894 3.94128C2.59029 4.223 2.43472 4.60393 2.43472 5V17C2.43472 17.3961 2.59029 17.777 2.86894 18.0587L3.22442 17.7071L2.86894 18.0587C3.14776 18.3406 3.5271 18.5 3.92382 18.5H13.8147C14.2114 18.5 14.5908 18.3406 14.8696 18.0587C15.1482 17.777 15.3038 17.3961 15.3038 17V5C15.3038 4.60394 15.1482 4.223 14.8696 3.94128C14.5908 3.65938 14.2114 3.5 13.8147 3.5H12.8256H12.3256V4C12.3256 4.39958 12.1686 4.78171 11.8908 5.0626C11.6131 5.34331 11.2377 5.5 10.8475 5.5H6.89109C6.50083 5.5 6.12544 5.34331 5.84779 5.0626C5.56996 4.78171 5.41291 4.39958 5.41291 4Z" fill="white" stroke="#DCE0EC"/>
</svg>
